<svg width="732" height="158" viewBox="0 0 732 158" fill="none" xmlns="http://www.w3.org/2000/svg">
<path fill-rule="evenodd" clip-rule="evenodd" d="M125.397 141.59C147.309 128.639 162.05 104.434 162.05 76.7102C162.05 48.9866 147.309 24.7809 125.397 11.8301C103.486 24.7809 88.7441 48.9866 88.7441 76.7102C88.7441 104.434 103.486 128.639 125.397 141.59Z" fill="#19BE8E"/>
<path fill-rule="evenodd" clip-rule="evenodd" d="M181.018 24.2292C195.2 45.6557 198.121 74.012 186.273 98.9563C174.428 123.896 150.824 139.096 125.579 140.975C111.397 119.549 108.476 91.1924 120.324 66.2481C132.17 41.3082 155.773 26.108 181.018 24.2292Z" fill="#027F36"/>
<path fill-rule="evenodd" clip-rule="evenodd" d="M73.6514 67.623C75.9773 42.9781 89.9922 21.8248 109.963 10.0209C99.1801 3.64766 86.661 0 73.3081 0C32.8211 0 0 33.5343 0 74.901C0 116.268 32.8211 149.802 73.3081 149.802C86.661 149.802 99.1801 146.154 109.963 139.781C90.1561 128.074 76.2078 107.171 73.7111 82.7852H59.9527V122.206H45.113V82.7852H15.436V67.623H45.113V43.3633H59.9527V67.623H73.6514Z" fill="#013E8B"/>
<path d="M234.336 39.8H247.104V69.848L276.48 39.8H292.512L250.848 81.56C261.12 73.304 269.76 73.208 275.712 81.944L292.992 107H277.44L265.248 88.856C260.256 81.176 254.4 79.736 248.544 83.864L247.104 85.304V107H234.336V39.8ZM316.917 39.8H338.229L358.869 107H345.525L340.629 90.584H314.517L309.621 107H296.277L316.917 39.8ZM317.781 79.544H337.365L327.573 46.904L317.781 79.544ZM366.49 39.8H419.194V50.84C419.194 50.84 413.53 57.368 396.154 77.624C385.786 90.104 378.394 95.192 368.122 95.96H420.154V107H363.514V95.96C363.802 95.96 369.466 89.432 386.938 68.888C397.114 56.6 404.41 51.608 414.586 50.84H366.49V39.8ZM428.773 107V39.8H441.542V107H428.773Z" fill="#013E8B"/>
<g filter="url(#filter0_d_620_882)">
<path d="M503.792 39.8H525.104L545.744 107H532.4L527.504 90.584H501.392L496.496 107H483.152L503.792 39.8ZM504.656 79.544H524.24L514.448 46.904L504.656 79.544ZM553.019 107V39.8H602.267V50.84H565.787V68.504H596.315V78.296H565.787V107H553.019ZM604.444 39.8H619.42L636.316 68.312L653.212 39.8H668.092L642.652 80.504V107H629.884V80.312L604.444 39.8ZM680.98 39.8H702.292L722.932 107H709.588L704.692 90.584H678.58L673.684 107H660.34L680.98 39.8ZM681.844 79.544H701.428L691.636 46.904L681.844 79.544Z" fill="#027F36"/>
</g>
<path d="M237.61 122H239.69V136H237.61V129.54H231.28V136H229.2V122H231.28V127.46H237.61V122ZM249.354 136.26C248.434 136.26 247.594 136.023 246.834 135.55C246.081 135.077 245.477 134.443 245.024 133.65C244.577 132.85 244.354 131.967 244.354 131C244.354 130.267 244.484 129.583 244.744 128.95C245.004 128.31 245.361 127.75 245.814 127.27C246.274 126.783 246.807 126.403 247.414 126.13C248.021 125.857 248.667 125.72 249.354 125.72C250.121 125.72 250.824 125.88 251.464 126.2C252.104 126.513 252.651 126.95 253.104 127.51C253.557 128.063 253.891 128.703 254.104 129.43C254.317 130.15 254.381 130.917 254.294 131.73H246.584C246.671 132.19 246.837 132.607 247.084 132.98C247.337 133.347 247.657 133.637 248.044 133.85C248.437 134.063 248.874 134.173 249.354 134.18C249.861 134.18 250.321 134.053 250.734 133.8C251.154 133.547 251.497 133.197 251.764 132.75L253.874 133.24C253.474 134.127 252.871 134.853 252.064 135.42C251.257 135.98 250.354 136.26 249.354 136.26ZM246.514 130.14H252.194C252.127 129.66 251.957 129.227 251.684 128.84C251.417 128.447 251.081 128.137 250.674 127.91C250.274 127.677 249.834 127.56 249.354 127.56C248.881 127.56 248.441 127.673 248.034 127.9C247.634 128.127 247.301 128.437 247.034 128.83C246.774 129.217 246.601 129.653 246.514 130.14ZM266.71 126H268.79V136H266.7L266.62 134.55C266.327 135.063 265.93 135.477 265.43 135.79C264.93 136.103 264.34 136.26 263.66 136.26C262.927 136.26 262.237 136.123 261.59 135.85C260.944 135.57 260.374 135.183 259.88 134.69C259.394 134.197 259.014 133.63 258.74 132.99C258.467 132.343 258.33 131.65 258.33 130.91C258.33 130.197 258.464 129.527 258.73 128.9C258.997 128.267 259.367 127.713 259.84 127.24C260.314 126.767 260.86 126.397 261.48 126.13C262.107 125.857 262.777 125.72 263.49 125.72C264.217 125.72 264.857 125.887 265.41 126.22C265.97 126.547 266.434 126.967 266.8 127.48L266.71 126ZM263.61 134.25C264.197 134.25 264.71 134.107 265.15 133.82C265.59 133.527 265.93 133.133 266.17 132.64C266.417 132.147 266.54 131.6 266.54 131C266.54 130.393 266.417 129.843 266.17 129.35C265.924 128.857 265.58 128.467 265.14 128.18C264.707 127.887 264.197 127.74 263.61 127.74C263.03 127.74 262.5 127.887 262.02 128.18C261.54 128.473 261.16 128.867 260.88 129.36C260.6 129.853 260.46 130.4 260.46 131C260.46 131.607 260.604 132.157 260.89 132.65C261.184 133.137 261.567 133.527 262.04 133.82C262.52 134.107 263.044 134.25 263.61 134.25ZM273.864 136V121H275.944V136H273.864ZM286.617 128.08H284.517L284.507 136H282.427L282.437 128.08H280.847V126H282.437L282.427 122.86H284.507L284.517 126H286.617V128.08ZM300.407 129.73V136H298.327V130.24C298.327 129.793 298.217 129.387 297.997 129.02C297.784 128.653 297.494 128.363 297.127 128.15C296.767 127.93 296.36 127.82 295.907 127.82C295.467 127.82 295.064 127.93 294.697 128.15C294.33 128.363 294.037 128.653 293.817 129.02C293.597 129.387 293.487 129.793 293.487 130.24V136H291.407V121H293.487V127.06C293.834 126.647 294.26 126.32 294.767 126.08C295.274 125.84 295.82 125.72 296.407 125.72C297.147 125.72 297.82 125.9 298.427 126.26C299.034 126.62 299.514 127.103 299.867 127.71C300.227 128.317 300.407 128.99 300.407 129.73ZM311.823 126H314.043L308.563 141H306.353L308.163 136L304.573 126H306.843L309.203 133.15L311.823 126ZM337.442 122V124.08H332.982V136H330.902V124.08H326.452V122H337.442ZM341.005 136V126H343.085V127.06C343.431 126.647 343.858 126.32 344.365 126.08C344.871 125.84 345.418 125.72 346.005 125.72C346.378 125.72 346.748 125.77 347.115 125.87L346.285 127.97C346.025 127.87 345.765 127.82 345.505 127.82C345.065 127.82 344.661 127.93 344.295 128.15C343.928 128.363 343.635 128.653 343.415 129.02C343.195 129.387 343.085 129.793 343.085 130.24V136H341.005ZM358.582 126H360.662V136H358.572L358.492 134.55C358.198 135.063 357.802 135.477 357.302 135.79C356.802 136.103 356.212 136.26 355.532 136.26C354.798 136.26 354.108 136.123 353.462 135.85C352.815 135.57 352.245 135.183 351.752 134.69C351.265 134.197 350.885 133.63 350.612 132.99C350.338 132.343 350.202 131.65 350.202 130.91C350.202 130.197 350.335 129.527 350.602 128.9C350.868 128.267 351.238 127.713 351.712 127.24C352.185 126.767 352.732 126.397 353.352 126.13C353.978 125.857 354.648 125.72 355.362 125.72C356.088 125.72 356.728 125.887 357.282 126.22C357.842 126.547 358.305 126.967 358.672 127.48L358.582 126ZM355.482 134.25C356.068 134.25 356.582 134.107 357.022 133.82C357.462 133.527 357.802 133.133 358.042 132.64C358.288 132.147 358.412 131.6 358.412 131C358.412 130.393 358.288 129.843 358.042 129.35C357.795 128.857 357.452 128.467 357.012 128.18C356.578 127.887 356.068 127.74 355.482 127.74C354.902 127.74 354.372 127.887 353.892 128.18C353.412 128.473 353.032 128.867 352.752 129.36C352.472 129.853 352.332 130.4 352.332 131C352.332 131.607 352.475 132.157 352.762 132.65C353.055 133.137 353.438 133.527 353.912 133.82C354.392 134.107 354.915 134.25 355.482 134.25ZM374.657 129.73V136H372.577V130.24C372.577 129.793 372.467 129.387 372.247 129.02C372.034 128.653 371.744 128.363 371.377 128.15C371.017 127.93 370.61 127.82 370.157 127.82C369.717 127.82 369.314 127.93 368.947 128.15C368.58 128.363 368.287 128.653 368.067 129.02C367.847 129.387 367.737 129.793 367.737 130.24V136H365.657V126H367.737V127.06C368.084 126.647 368.51 126.32 369.017 126.08C369.524 125.84 370.07 125.72 370.657 125.72C371.397 125.72 372.07 125.9 372.677 126.26C373.284 126.62 373.764 127.103 374.117 127.71C374.477 128.317 374.657 128.99 374.657 129.73ZM382.653 136.19C382.126 136.157 381.613 136.05 381.113 135.87C380.613 135.69 380.173 135.447 379.793 135.14C379.42 134.827 379.14 134.46 378.953 134.04L380.723 133.28C380.81 133.46 380.96 133.637 381.173 133.81C381.393 133.983 381.65 134.127 381.943 134.24C382.236 134.347 382.543 134.4 382.863 134.4C383.176 134.4 383.466 134.357 383.733 134.27C384.006 134.177 384.23 134.037 384.403 133.85C384.576 133.663 384.663 133.44 384.663 133.18C384.663 132.887 384.563 132.66 384.363 132.5C384.17 132.333 383.926 132.207 383.633 132.12C383.34 132.033 383.046 131.95 382.753 131.87C382.1 131.723 381.5 131.523 380.953 131.27C380.413 131.01 379.983 130.68 379.663 130.28C379.343 129.873 379.183 129.377 379.183 128.79C379.183 128.15 379.356 127.597 379.703 127.13C380.05 126.657 380.503 126.293 381.063 126.04C381.63 125.787 382.233 125.66 382.873 125.66C383.673 125.66 384.406 125.83 385.073 126.17C385.74 126.51 386.25 126.977 386.603 127.57L384.953 128.55C384.853 128.35 384.703 128.17 384.503 128.01C384.303 127.85 384.076 127.723 383.823 127.63C383.57 127.53 383.306 127.473 383.033 127.46C382.693 127.447 382.376 127.487 382.083 127.58C381.796 127.667 381.566 127.807 381.393 128C381.22 128.193 381.133 128.44 381.133 128.74C381.133 129.033 381.236 129.253 381.443 129.4C381.65 129.54 381.91 129.653 382.223 129.74C382.543 129.827 382.87 129.923 383.203 130.03C383.796 130.217 384.353 130.447 384.873 130.72C385.393 130.987 385.813 131.317 386.133 131.71C386.453 132.103 386.606 132.583 386.593 133.15C386.593 133.777 386.403 134.327 386.023 134.8C385.65 135.273 385.163 135.633 384.563 135.88C383.963 136.127 383.326 136.23 382.653 136.19ZM398.949 126H401.029V136H398.939L398.859 134.55C398.565 135.063 398.169 135.477 397.669 135.79C397.169 136.103 396.579 136.26 395.899 136.26C395.165 136.26 394.475 136.123 393.829 135.85C393.182 135.57 392.612 135.183 392.119 134.69C391.632 134.197 391.252 133.63 390.979 132.99C390.705 132.343 390.569 131.65 390.569 130.91C390.569 130.197 390.702 129.527 390.969 128.9C391.235 128.267 391.605 127.713 392.079 127.24C392.552 126.767 393.099 126.397 393.719 126.13C394.345 125.857 395.015 125.72 395.729 125.72C396.455 125.72 397.095 125.887 397.649 126.22C398.209 126.547 398.672 126.967 399.039 127.48L398.949 126ZM395.849 134.25C396.435 134.25 396.949 134.107 397.389 133.82C397.829 133.527 398.169 133.133 398.409 132.64C398.655 132.147 398.779 131.6 398.779 131C398.779 130.393 398.655 129.843 398.409 129.35C398.162 128.857 397.819 128.467 397.379 128.18C396.945 127.887 396.435 127.74 395.849 127.74C395.269 127.74 394.739 127.887 394.259 128.18C393.779 128.473 393.399 128.867 393.119 129.36C392.839 129.853 392.699 130.4 392.699 131C392.699 131.607 392.842 132.157 393.129 132.65C393.422 133.137 393.805 133.527 394.279 133.82C394.759 134.107 395.282 134.25 395.849 134.25ZM412.359 133.16L414.219 134.17C413.766 134.803 413.189 135.31 412.489 135.69C411.796 136.07 411.042 136.26 410.229 136.26C409.309 136.26 408.469 136.023 407.709 135.55C406.956 135.077 406.352 134.443 405.899 133.65C405.452 132.85 405.229 131.967 405.229 131C405.229 130.267 405.359 129.583 405.619 128.95C405.879 128.31 406.236 127.75 406.689 127.27C407.149 126.783 407.682 126.403 408.289 126.13C408.896 125.857 409.542 125.72 410.229 125.72C411.042 125.72 411.796 125.91 412.489 126.29C413.189 126.67 413.766 127.18 414.219 127.82L412.359 128.83C412.079 128.497 411.752 128.243 411.379 128.07C411.006 127.89 410.622 127.8 410.229 127.8C409.682 127.8 409.186 127.95 408.739 128.25C408.299 128.543 407.949 128.933 407.689 129.42C407.436 129.9 407.309 130.427 407.309 131C407.309 131.567 407.439 132.093 407.699 132.58C407.959 133.06 408.309 133.447 408.749 133.74C409.196 134.033 409.689 134.18 410.229 134.18C410.642 134.18 411.036 134.087 411.409 133.9C411.782 133.713 412.099 133.467 412.359 133.16ZM424.304 128.08H422.204L422.194 136H420.114L420.124 128.08H418.534V126H420.124L420.114 122.86H422.194L422.204 126H424.304V128.08ZM428.958 126H431.038V136H428.958V126ZM430.018 124.55C429.698 124.55 429.431 124.447 429.218 124.24C429.004 124.033 428.898 123.773 428.898 123.46C428.898 123.153 429.004 122.897 429.218 122.69C429.431 122.477 429.694 122.37 430.008 122.37C430.314 122.37 430.574 122.477 430.788 122.69C431.001 122.897 431.108 123.153 431.108 123.46C431.108 123.773 431.001 124.033 430.788 124.24C430.581 124.447 430.324 124.55 430.018 124.55ZM440.655 136.26C439.735 136.26 438.895 136.023 438.135 135.55C437.381 135.077 436.778 134.443 436.325 133.65C435.878 132.85 435.655 131.967 435.655 131C435.655 130.267 435.785 129.583 436.045 128.95C436.305 128.31 436.661 127.75 437.115 127.27C437.575 126.783 438.108 126.403 438.715 126.13C439.321 125.857 439.968 125.72 440.655 125.72C441.575 125.72 442.411 125.957 443.165 126.43C443.925 126.903 444.528 127.54 444.975 128.34C445.428 129.14 445.655 130.027 445.655 131C445.655 131.727 445.525 132.407 445.265 133.04C445.005 133.673 444.645 134.233 444.185 134.72C443.731 135.2 443.201 135.577 442.595 135.85C441.995 136.123 441.348 136.26 440.655 136.26ZM440.655 134.18C441.208 134.18 441.705 134.033 442.145 133.74C442.585 133.447 442.931 133.06 443.185 132.58C443.445 132.093 443.575 131.567 443.575 131C443.575 130.42 443.441 129.887 443.175 129.4C442.915 128.913 442.565 128.527 442.125 128.24C441.685 127.947 441.195 127.8 440.655 127.8C440.108 127.8 439.611 127.947 439.165 128.24C438.725 128.533 438.375 128.923 438.115 129.41C437.861 129.897 437.735 130.427 437.735 131C437.735 131.593 437.868 132.13 438.135 132.61C438.401 133.09 438.755 133.473 439.195 133.76C439.641 134.04 440.128 134.18 440.655 134.18ZM459.27 129.73V136H457.19V130.24C457.19 129.793 457.08 129.387 456.86 129.02C456.647 128.653 456.357 128.363 455.99 128.15C455.63 127.93 455.224 127.82 454.77 127.82C454.33 127.82 453.927 127.93 453.56 128.15C453.194 128.363 452.9 128.653 452.68 129.02C452.46 129.387 452.35 129.793 452.35 130.24V136H450.27V126H452.35V127.06C452.697 126.647 453.124 126.32 453.63 126.08C454.137 125.84 454.684 125.72 455.27 125.72C456.01 125.72 456.684 125.9 457.29 126.26C457.897 126.62 458.377 127.103 458.73 127.71C459.09 128.317 459.27 128.99 459.27 129.73ZM467.266 136.19C466.74 136.157 466.226 136.05 465.726 135.87C465.226 135.69 464.786 135.447 464.406 135.14C464.033 134.827 463.753 134.46 463.566 134.04L465.336 133.28C465.423 133.46 465.573 133.637 465.786 133.81C466.006 133.983 466.263 134.127 466.556 134.24C466.85 134.347 467.156 134.4 467.476 134.4C467.79 134.4 468.08 134.357 468.346 134.27C468.62 134.177 468.843 134.037 469.016 133.85C469.19 133.663 469.276 133.44 469.276 133.18C469.276 132.887 469.176 132.66 468.976 132.5C468.783 132.333 468.54 132.207 468.246 132.12C467.953 132.033 467.66 131.95 467.366 131.87C466.713 131.723 466.113 131.523 465.566 131.27C465.026 131.01 464.596 130.68 464.276 130.28C463.956 129.873 463.796 129.377 463.796 128.79C463.796 128.15 463.97 127.597 464.316 127.13C464.663 126.657 465.116 126.293 465.676 126.04C466.243 125.787 466.846 125.66 467.486 125.66C468.286 125.66 469.02 125.83 469.686 126.17C470.353 126.51 470.863 126.977 471.216 127.57L469.566 128.55C469.466 128.35 469.316 128.17 469.116 128.01C468.916 127.85 468.69 127.723 468.436 127.63C468.183 127.53 467.92 127.473 467.646 127.46C467.306 127.447 466.99 127.487 466.696 127.58C466.41 127.667 466.18 127.807 466.006 128C465.833 128.193 465.746 128.44 465.746 128.74C465.746 129.033 465.85 129.253 466.056 129.4C466.263 129.54 466.523 129.653 466.836 129.74C467.156 129.827 467.483 129.923 467.816 130.03C468.41 130.217 468.966 130.447 469.486 130.72C470.006 130.987 470.426 131.317 470.746 131.71C471.066 132.103 471.22 132.583 471.206 133.15C471.206 133.777 471.016 134.327 470.636 134.8C470.263 135.273 469.776 135.633 469.176 135.88C468.576 136.127 467.94 136.23 467.266 136.19ZM475.441 137.12L476.061 133.74H478.141L476.821 137.12H475.441ZM499.762 122H501.842V136H499.762V129.54H493.432V136H491.352V122H493.432V127.46H499.762V122ZM511.506 136.26C510.586 136.26 509.746 136.023 508.986 135.55C508.233 135.077 507.63 134.443 507.176 133.65C506.73 132.85 506.506 131.967 506.506 131C506.506 130.267 506.636 129.583 506.896 128.95C507.156 128.31 507.513 127.75 507.966 127.27C508.426 126.783 508.96 126.403 509.566 126.13C510.173 125.857 510.82 125.72 511.506 125.72C512.273 125.72 512.976 125.88 513.616 126.2C514.256 126.513 514.803 126.95 515.256 127.51C515.71 128.063 516.043 128.703 516.256 129.43C516.47 130.15 516.533 130.917 516.446 131.73H508.736C508.823 132.19 508.99 132.607 509.236 132.98C509.49 133.347 509.81 133.637 510.196 133.85C510.59 134.063 511.026 134.173 511.506 134.18C512.013 134.18 512.473 134.053 512.886 133.8C513.306 133.547 513.65 133.197 513.916 132.75L516.026 133.24C515.626 134.127 515.023 134.853 514.216 135.42C513.41 135.98 512.506 136.26 511.506 136.26ZM508.666 130.14H514.346C514.28 129.66 514.11 129.227 513.836 128.84C513.57 128.447 513.233 128.137 512.826 127.91C512.426 127.677 511.986 127.56 511.506 127.56C511.033 127.56 510.593 127.673 510.186 127.9C509.786 128.127 509.453 128.437 509.186 128.83C508.926 129.217 508.753 129.653 508.666 130.14ZM528.863 126H530.943V136H528.853L528.773 134.55C528.479 135.063 528.083 135.477 527.583 135.79C527.083 136.103 526.493 136.26 525.813 136.26C525.079 136.26 524.389 136.123 523.743 135.85C523.096 135.57 522.526 135.183 522.033 134.69C521.546 134.197 521.166 133.63 520.893 132.99C520.619 132.343 520.483 131.65 520.483 130.91C520.483 130.197 520.616 129.527 520.883 128.9C521.149 128.267 521.519 127.713 521.993 127.24C522.466 126.767 523.013 126.397 523.633 126.13C524.259 125.857 524.929 125.72 525.643 125.72C526.369 125.72 527.009 125.887 527.563 126.22C528.123 126.547 528.586 126.967 528.953 127.48L528.863 126ZM525.763 134.25C526.349 134.25 526.863 134.107 527.303 133.82C527.743 133.527 528.083 133.133 528.323 132.64C528.569 132.147 528.693 131.6 528.693 131C528.693 130.393 528.569 129.843 528.323 129.35C528.076 128.857 527.733 128.467 527.293 128.18C526.859 127.887 526.349 127.74 525.763 127.74C525.183 127.74 524.653 127.887 524.173 128.18C523.693 128.473 523.313 128.867 523.033 129.36C522.753 129.853 522.613 130.4 522.613 131C522.613 131.607 522.756 132.157 523.043 132.65C523.336 133.137 523.719 133.527 524.193 133.82C524.673 134.107 525.196 134.25 525.763 134.25ZM536.016 136V121H538.096V136H536.016ZM548.769 128.08H546.669L546.659 136H544.579L544.589 128.08H542.999V126H544.589L544.579 122.86H546.659L546.669 126H548.769V128.08ZM562.559 129.73V136H560.479V130.24C560.479 129.793 560.369 129.387 560.149 129.02C559.936 128.653 559.646 128.363 559.279 128.15C558.919 127.93 558.513 127.82 558.059 127.82C557.619 127.82 557.216 127.93 556.849 128.15C556.483 128.363 556.189 128.653 555.969 129.02C555.749 129.387 555.639 129.793 555.639 130.24V136H553.559V121H555.639V127.06C555.986 126.647 556.413 126.32 556.919 126.08C557.426 125.84 557.973 125.72 558.559 125.72C559.299 125.72 559.973 125.9 560.579 126.26C561.186 126.62 561.666 127.103 562.019 127.71C562.379 128.317 562.559 128.99 562.559 129.73ZM567.555 126H569.635V136H567.555V126ZM568.615 124.55C568.295 124.55 568.029 124.447 567.815 124.24C567.602 124.033 567.495 123.773 567.495 123.46C567.495 123.153 567.602 122.897 567.815 122.69C568.029 122.477 568.292 122.37 568.605 122.37C568.912 122.37 569.172 122.477 569.385 122.69C569.599 122.897 569.705 123.153 569.705 123.46C569.705 123.773 569.599 124.033 569.385 124.24C569.179 124.447 568.922 124.55 568.615 124.55ZM579.252 136.26C578.332 136.26 577.492 136.023 576.732 135.55C575.979 135.077 575.376 134.443 574.922 133.65C574.476 132.85 574.252 131.967 574.252 131C574.252 130.267 574.382 129.583 574.642 128.95C574.902 128.31 575.259 127.75 575.712 127.27C576.172 126.783 576.706 126.403 577.312 126.13C577.919 125.857 578.566 125.72 579.252 125.72C580.019 125.72 580.722 125.88 581.362 126.2C582.002 126.513 582.549 126.95 583.002 127.51C583.456 128.063 583.789 128.703 584.002 129.43C584.216 130.15 584.279 130.917 584.192 131.73H576.482C576.569 132.19 576.736 132.607 576.982 132.98C577.236 133.347 577.556 133.637 577.942 133.85C578.336 134.063 578.772 134.173 579.252 134.18C579.759 134.18 580.219 134.053 580.632 133.8C581.052 133.547 581.396 133.197 581.662 132.75L583.772 133.24C583.372 134.127 582.769 134.853 581.962 135.42C581.156 135.98 580.252 136.26 579.252 136.26ZM576.412 130.14H582.092C582.026 129.66 581.856 129.227 581.582 128.84C581.316 128.447 580.979 128.137 580.572 127.91C580.172 127.677 579.732 127.56 579.252 127.56C578.779 127.56 578.339 127.673 577.932 127.9C577.532 128.127 577.199 128.437 576.932 128.83C576.672 129.217 576.499 129.653 576.412 130.14ZM588.848 136V126H590.928V127.06C591.275 126.647 591.702 126.32 592.208 126.08C592.715 125.84 593.262 125.72 593.848 125.72C594.222 125.72 594.592 125.77 594.958 125.87L594.128 127.97C593.868 127.87 593.608 127.82 593.348 127.82C592.908 127.82 592.505 127.93 592.138 128.15C591.772 128.363 591.478 128.653 591.258 129.02C591.038 129.387 590.928 129.793 590.928 130.24V136H588.848ZM613.673 136.26C612.726 136.26 611.836 136.073 611.003 135.7C610.169 135.32 609.436 134.797 608.803 134.13C608.169 133.463 607.673 132.693 607.313 131.82C606.953 130.94 606.773 130 606.773 129C606.773 128 606.953 127.063 607.313 126.19C607.673 125.31 608.169 124.537 608.803 123.87C609.436 123.203 610.169 122.683 611.003 122.31C611.836 121.93 612.726 121.74 613.673 121.74C614.626 121.74 615.519 121.93 616.353 122.31C617.186 122.683 617.919 123.203 618.553 123.87C619.186 124.537 619.679 125.31 620.033 126.19C620.393 127.063 620.573 128 620.573 129C620.573 130 620.393 130.94 620.033 131.82C619.679 132.693 619.186 133.463 618.553 134.13C617.919 134.797 617.186 135.32 616.353 135.7C615.519 136.073 614.626 136.26 613.673 136.26ZM613.673 134.18C614.339 134.18 614.963 134.043 615.543 133.77C616.123 133.497 616.633 133.123 617.073 132.65C617.519 132.17 617.866 131.62 618.113 131C618.366 130.373 618.493 129.707 618.493 129C618.493 128.293 618.366 127.627 618.113 127C617.866 126.373 617.519 125.823 617.073 125.35C616.633 124.87 616.123 124.497 615.543 124.23C614.963 123.957 614.339 123.82 613.673 123.82C613.006 123.82 612.383 123.957 611.803 124.23C611.223 124.503 610.709 124.88 610.263 125.36C609.823 125.833 609.476 126.383 609.223 127.01C608.976 127.63 608.853 128.293 608.853 129C608.853 129.713 608.976 130.383 609.223 131.01C609.476 131.63 609.823 132.18 610.263 132.66C610.709 133.133 611.223 133.507 611.803 133.78C612.383 134.047 613.006 134.18 613.673 134.18ZM627.643 141H625.563V126H627.643V127.47C627.977 126.957 628.403 126.54 628.923 126.22C629.443 125.9 630.057 125.74 630.763 125.74C631.49 125.74 632.17 125.877 632.803 126.15C633.443 126.423 634.003 126.803 634.483 127.29C634.963 127.77 635.34 128.327 635.613 128.96C635.887 129.593 636.023 130.273 636.023 131C636.023 131.727 635.887 132.41 635.613 133.05C635.34 133.69 634.963 134.253 634.483 134.74C634.003 135.22 633.443 135.597 632.803 135.87C632.17 136.143 631.49 136.28 630.763 136.28C630.057 136.28 629.443 136.12 628.923 135.8C628.403 135.473 627.977 135.057 627.643 134.55V141ZM630.743 127.75C630.163 127.75 629.653 127.897 629.213 128.19C628.773 128.483 628.43 128.877 628.183 129.37C627.937 129.857 627.813 130.4 627.813 131C627.813 131.6 627.937 132.147 628.183 132.64C628.43 133.133 628.773 133.527 629.213 133.82C629.653 134.113 630.163 134.26 630.743 134.26C631.317 134.26 631.843 134.117 632.323 133.83C632.803 133.537 633.187 133.143 633.473 132.65C633.76 132.157 633.903 131.607 633.903 131C633.903 130.407 633.76 129.863 633.473 129.37C633.193 128.877 632.813 128.483 632.333 128.19C631.853 127.897 631.323 127.75 630.743 127.75ZM645.034 136.26C644.114 136.26 643.274 136.023 642.514 135.55C641.76 135.077 641.157 134.443 640.704 133.65C640.257 132.85 640.034 131.967 640.034 131C640.034 130.267 640.164 129.583 640.424 128.95C640.684 128.31 641.04 127.75 641.494 127.27C641.954 126.783 642.487 126.403 643.094 126.13C643.7 125.857 644.347 125.72 645.034 125.72C645.8 125.72 646.504 125.88 647.144 126.2C647.784 126.513 648.33 126.95 648.784 127.51C649.237 128.063 649.57 128.703 649.784 129.43C649.997 130.15 650.06 130.917 649.974 131.73H642.264C642.35 132.19 642.517 132.607 642.764 132.98C643.017 133.347 643.337 133.637 643.724 133.85C644.117 134.063 644.554 134.173 645.034 134.18C645.54 134.18 646 134.053 646.414 133.8C646.834 133.547 647.177 133.197 647.444 132.75L649.554 133.24C649.154 134.127 648.55 134.853 647.744 135.42C646.937 135.98 646.034 136.26 645.034 136.26ZM642.194 130.14H647.874C647.807 129.66 647.637 129.227 647.364 128.84C647.097 128.447 646.76 128.137 646.354 127.91C645.954 127.677 645.514 127.56 645.034 127.56C644.56 127.56 644.12 127.673 643.714 127.9C643.314 128.127 642.98 128.437 642.714 128.83C642.454 129.217 642.28 129.653 642.194 130.14ZM654.63 136V126H656.71V127.06C657.056 126.647 657.483 126.32 657.99 126.08C658.496 125.84 659.043 125.72 659.63 125.72C660.003 125.72 660.373 125.77 660.74 125.87L659.91 127.97C659.65 127.87 659.39 127.82 659.13 127.82C658.69 127.82 658.286 127.93 657.92 128.15C657.553 128.363 657.26 128.653 657.04 129.02C656.82 129.387 656.71 129.793 656.71 130.24V136H654.63ZM672.207 126H674.287V136H672.197L672.117 134.55C671.823 135.063 671.427 135.477 670.927 135.79C670.427 136.103 669.837 136.26 669.157 136.26C668.423 136.26 667.733 136.123 667.087 135.85C666.44 135.57 665.87 135.183 665.377 134.69C664.89 134.197 664.51 133.63 664.237 132.99C663.963 132.343 663.827 131.65 663.827 130.91C663.827 130.197 663.96 129.527 664.227 128.9C664.493 128.267 664.863 127.713 665.337 127.24C665.81 126.767 666.357 126.397 666.977 126.13C667.603 125.857 668.273 125.72 668.987 125.72C669.713 125.72 670.353 125.887 670.907 126.22C671.467 126.547 671.93 126.967 672.297 127.48L672.207 126ZM669.107 134.25C669.693 134.25 670.207 134.107 670.647 133.82C671.087 133.527 671.427 133.133 671.667 132.64C671.913 132.147 672.037 131.6 672.037 131C672.037 130.393 671.913 129.843 671.667 129.35C671.42 128.857 671.077 128.467 670.637 128.18C670.203 127.887 669.693 127.74 669.107 127.74C668.527 127.74 667.997 127.887 667.517 128.18C667.037 128.473 666.657 128.867 666.377 129.36C666.097 129.853 665.957 130.4 665.957 131C665.957 131.607 666.1 132.157 666.387 132.65C666.68 133.137 667.063 133.527 667.537 133.82C668.017 134.107 668.54 134.25 669.107 134.25ZM684.562 128.08H682.462L682.452 136H680.372L680.382 128.08H678.792V126H680.382L680.372 122.86H682.452L682.462 126H684.562V128.08ZM689.216 126H691.296V136H689.216V126ZM690.276 124.55C689.956 124.55 689.689 124.447 689.476 124.24C689.262 124.033 689.156 123.773 689.156 123.46C689.156 123.153 689.262 122.897 689.476 122.69C689.689 122.477 689.952 122.37 690.266 122.37C690.572 122.37 690.832 122.477 691.046 122.69C691.259 122.897 691.366 123.153 691.366 123.46C691.366 123.773 691.259 124.033 691.046 124.24C690.839 124.447 690.582 124.55 690.276 124.55ZM700.913 136.26C699.993 136.26 699.153 136.023 698.393 135.55C697.639 135.077 697.036 134.443 696.583 133.65C696.136 132.85 695.913 131.967 695.913 131C695.913 130.267 696.043 129.583 696.303 128.95C696.563 128.31 696.919 127.75 697.373 127.27C697.833 126.783 698.366 126.403 698.973 126.13C699.579 125.857 700.226 125.72 700.913 125.72C701.833 125.72 702.669 125.957 703.423 126.43C704.183 126.903 704.786 127.54 705.233 128.34C705.686 129.14 705.913 130.027 705.913 131C705.913 131.727 705.783 132.407 705.523 133.04C705.263 133.673 704.903 134.233 704.443 134.72C703.989 135.2 703.459 135.577 702.853 135.85C702.253 136.123 701.606 136.26 700.913 136.26ZM700.913 134.18C701.466 134.18 701.963 134.033 702.403 133.74C702.843 133.447 703.189 133.06 703.443 132.58C703.703 132.093 703.833 131.567 703.833 131C703.833 130.42 703.699 129.887 703.433 129.4C703.173 128.913 702.823 128.527 702.383 128.24C701.943 127.947 701.453 127.8 700.913 127.8C700.366 127.8 699.869 127.947 699.423 128.24C698.983 128.533 698.633 128.923 698.373 129.41C698.119 129.897 697.993 130.427 697.993 131C697.993 131.593 698.126 132.13 698.393 132.61C698.659 133.09 699.013 133.473 699.453 133.76C699.899 134.04 700.386 134.18 700.913 134.18ZM719.528 129.73V136H717.448V130.24C717.448 129.793 717.338 129.387 717.118 129.02C716.905 128.653 716.615 128.363 716.248 128.15C715.888 127.93 715.481 127.82 715.028 127.82C714.588 127.82 714.185 127.93 713.818 128.15C713.451 128.363 713.158 128.653 712.938 129.02C712.718 129.387 712.608 129.793 712.608 130.24V136H710.528V126H712.608V127.06C712.955 126.647 713.381 126.32 713.888 126.08C714.395 125.84 714.941 125.72 715.528 125.72C716.268 125.72 716.941 125.9 717.548 126.26C718.155 126.62 718.635 127.103 718.988 127.71C719.348 128.317 719.528 128.99 719.528 129.73ZM727.524 136.19C726.998 136.157 726.484 136.05 725.984 135.87C725.484 135.69 725.044 135.447 724.664 135.14C724.291 134.827 724.011 134.46 723.824 134.04L725.594 133.28C725.681 133.46 725.831 133.637 726.044 133.81C726.264 133.983 726.521 134.127 726.814 134.24C727.108 134.347 727.414 134.4 727.734 134.4C728.048 134.4 728.338 134.357 728.604 134.27C728.878 134.177 729.101 134.037 729.274 133.85C729.448 133.663 729.534 133.44 729.534 133.18C729.534 132.887 729.434 132.66 729.234 132.5C729.041 132.333 728.798 132.207 728.504 132.12C728.211 132.033 727.918 131.95 727.624 131.87C726.971 131.723 726.371 131.523 725.824 131.27C725.284 131.01 724.854 130.68 724.534 130.28C724.214 129.873 724.054 129.377 724.054 128.79C724.054 128.15 724.228 127.597 724.574 127.13C724.921 126.657 725.374 126.293 725.934 126.04C726.501 125.787 727.104 125.66 727.744 125.66C728.544 125.66 729.278 125.83 729.944 126.17C730.611 126.51 731.121 126.977 731.474 127.57L729.824 128.55C729.724 128.35 729.574 128.17 729.374 128.01C729.174 127.85 728.948 127.723 728.694 127.63C728.441 127.53 728.178 127.473 727.904 127.46C727.564 127.447 727.248 127.487 726.954 127.58C726.668 127.667 726.438 127.807 726.264 128C726.091 128.193 726.004 128.44 726.004 128.74C726.004 129.033 726.108 129.253 726.314 129.4C726.521 129.54 726.781 129.653 727.094 129.74C727.414 129.827 727.741 129.923 728.074 130.03C728.668 130.217 729.224 130.447 729.744 130.72C730.264 130.987 730.684 131.317 731.004 131.71C731.324 132.103 731.478 132.583 731.464 133.15C731.464 133.777 731.274 134.327 730.894 134.8C730.521 135.273 730.034 135.633 729.434 135.88C728.834 136.127 728.198 136.23 727.524 136.19Z" fill="#013E8B"/>
<defs>
<filter id="filter0_d_620_882" x="479.152" y="39.8008" width="247.779" height="75.1992" filterUnits="userSpaceOnUse" color-interpolation-filters="sRGB">
<feFlood flood-opacity="0" result="BackgroundImageFix"/>
<feColorMatrix in="SourceAlpha" type="matrix" values="0 0 0 0 0 0 0 0 0 0 0 0 0 0 0 0 0 0 127 0" result="hardAlpha"/>
<feOffset dy="4"/>
<feGaussianBlur stdDeviation="2"/>
<feComposite in2="hardAlpha" operator="out"/>
<feColorMatrix type="matrix" values="0 0 0 0 0 0 0 0 0 0 0 0 0 0 0 0 0 0 0.4 0"/>
<feBlend mode="normal" in2="BackgroundImageFix" result="effect1_dropShadow_620_882"/>
<feBlend mode="normal" in="SourceGraphic" in2="effect1_dropShadow_620_882" result="shape"/>
</filter>
</defs>
</svg>
