<svg width="214" height="158" viewBox="0 0 214 158" fill="none" xmlns="http://www.w3.org/2000/svg">
<path fillRule="evenodd" clipRule="evenodd" d="M125.397 141.59C147.309 128.639 162.05 104.434 162.05 76.7102C162.05 48.9866 147.309 24.7809 125.397 11.8301C103.486 24.7809 88.7441 48.9866 88.7441 76.7102C88.7441 104.434 103.486 128.639 125.397 141.59Z" fill="#19BE8E"/>
<path fillRule="evenodd" clipRule="evenodd" d="M181.018 24.2292C195.2 45.6557 198.121 74.012 186.273 98.9563C174.428 123.896 150.824 139.096 125.579 140.975C111.397 119.549 108.476 91.1924 120.324 66.2481C132.17 41.3082 155.773 26.108 181.018 24.2292Z" fill="#027F36"/>
<path fillRule="evenodd" clipRule="evenodd" d="M73.6514 67.623C75.9773 42.9781 89.9922 21.8248 109.963 10.0209C99.1801 3.64766 86.661 0 73.3081 0C32.8211 0 0 33.5343 0 74.901C0 116.268 32.8211 149.802 73.3081 149.802C86.661 149.802 99.1801 146.154 109.963 139.781C90.1561 128.074 76.2078 107.171 73.7111 82.7852H59.9527V122.206H45.113V82.7852H15.436V67.623H45.113V43.3633H59.9527V67.623H73.6514Z" fill="#013E8B"/>
</svg>
